# xmcd
#
# Track frame offsets:
# 183
# 18163
# 36430
# 47788
# 63910
# 79073
# 97623
# 111603
# 132248
# 141770
# 160283
# 174523
# 189663
# 200533
#
# Disc length: 2901 seconds
#
#
# Revision: 0
# Processed by: cddbd v1.5.1PL0 Copyright (c) Steve Scherf et al.
# Submitted via: FreeRIP 2.93 
#
DISCID=be0b530e
DTITLE=Jory Sarah - New Horizons
DYEAR=1992
DGENRE=Country
TTITLE0=Never had it so good
TTITLE1=Look at us
TTITLE2=Take your memory with you
TTITLE3=The strings that tie you down
TTITLE4=Darlin'
TTITLE5=Wind beneath my wings
TTITLE6=Orange blossom special
TTITLE7=Mississippi
TTITLE8=How do
TTITLE9='Til a tear becomes a rose
TTITLE10=You'll never get to heaven
TTITLE11=Take a love off my mind
TTITLE12=Heartaches by the number
TTITLE13=Sarah's dream
EXTD=
EXTT0=
EXTT1=
EXTT2=
EXTT3=
EXTT4=
EXTT5=
EXTT6=
EXTT7=
EXTT8=
EXTT9=
EXTT10=
EXTT11=
EXTT12=
EXTT13=
PLAYORDER=
